<svg width="24" height="24" viewBox="0 0 24 24" fill="none" xmlns="http://www.w3.org/2000/svg">
<g clip-path="url(#clip0_22_506)">
<path d="M19.9 3.09114C19.7771 2.56279 19.5479 2.06497 19.2265 1.62796C18.9052 1.19095 18.4982 0.823867 18.0305 0.549048C17.5629 0.274229 17.0441 0.0974121 16.506 0.0293508C15.9678 -0.0387105 15.4214 0.00340591 14.9 0.153139L13.176 0.646139C12.7393 0.771659 12.337 0.995358 12 1.30014C11.663 0.995358 11.2607 0.771659 10.824 0.646139L9.1 0.153139C8.57894 0.00418632 8.03304 -0.0373297 7.49544 0.0311107C6.95784 0.0995511 6.43976 0.27652 5.97263 0.551277C5.50551 0.826034 5.09909 1.19285 4.77804 1.62945C4.45699 2.06606 4.22801 2.56335 4.105 3.09114C2.9548 3.3004 1.91429 3.9061 1.16433 4.80294C0.414377 5.69978 0.00239598 6.83106 0 8.00014L0 15.0001C0.00158786 16.3257 0.528882 17.5966 1.46622 18.5339C2.40356 19.4713 3.67441 19.9986 5 20.0001H11V22.0001H8C7.73478 22.0001 7.48043 22.1055 7.29289 22.293C7.10536 22.4806 7 22.7349 7 23.0001C7 23.2654 7.10536 23.5197 7.29289 23.7072C7.48043 23.8948 7.73478 24.0001 8 24.0001H16C16.2652 24.0001 16.5196 23.8948 16.7071 23.7072C16.8946 23.5197 17 23.2654 17 23.0001C17 22.7349 16.8946 22.4806 16.7071 22.293C16.5196 22.1055 16.2652 22.0001 16 22.0001H13V20.0001H19C20.3256 19.9986 21.5964 19.4713 22.5338 18.5339C23.4711 17.5966 23.9984 16.3257 24 15.0001V8.00014C23.9978 6.83177 23.5865 5.70106 22.8376 4.80432C22.0886 3.90758 21.0493 3.30144 19.9 3.09114ZM13 3.53114C13.0001 3.31395 13.0709 3.1027 13.2017 2.92933C13.3325 2.75595 13.5162 2.62986 13.725 2.57014L15.45 2.07714C15.7477 1.99199 16.0611 1.97712 16.3655 2.0337C16.6699 2.09028 16.957 2.21677 17.2042 2.40319C17.4514 2.58961 17.652 2.83088 17.7901 3.108C17.9281 3.38512 18 3.69052 18 4.00014V7.93814C17.9986 8.37209 17.8565 8.79389 17.5951 9.14026C17.3337 9.48662 16.967 9.73886 16.55 9.85914L13 10.8731V3.53114ZM6.8 2.40014C7.04673 2.21439 7.33325 2.08853 7.63695 2.03247C7.94065 1.97642 8.25322 1.99171 8.55 2.07714L10.275 2.57014C10.4838 2.62986 10.6675 2.75595 10.7983 2.92933C10.9291 3.1027 10.9999 3.31395 11 3.53114V10.8731L7.45 9.85914C7.03305 9.73886 6.66634 9.48662 6.4049 9.14026C6.14346 8.79389 6.00139 8.37209 6 7.93814V4.00014C5.99898 3.68947 6.07083 3.38289 6.20976 3.10502C6.3487 2.82715 6.55086 2.58573 6.8 2.40014ZM22 15.0001C22 15.7958 21.6839 16.5589 21.1213 17.1215C20.5587 17.6841 19.7956 18.0001 19 18.0001H5C4.20435 18.0001 3.44129 17.6841 2.87868 17.1215C2.31607 16.5589 2 15.7958 2 15.0001V8.00014C2.00256 7.38188 2.19608 6.77951 2.55409 6.27544C2.91209 5.77137 3.41709 5.39022 4 5.18414V7.93814C4.00245 8.80648 4.28642 9.65061 4.8093 10.3439C5.33218 11.0371 6.06577 11.5422 6.9 11.7831L10.351 12.7701C11.4295 13.0776 12.5725 13.0776 13.651 12.7701L17.102 11.7831C17.9359 11.5418 18.669 11.0366 19.1915 10.3434C19.714 9.65016 19.9977 8.80622 20 7.93814V5.18414C20.5829 5.39022 21.0879 5.77137 21.4459 6.27544C21.8039 6.77951 21.9974 7.38188 22 8.00014V15.0001Z" fill="#374957"/>
</g>
<defs>
<clipPath id="clip0_22_506">
<rect width="24" height="24" fill="white"/>
</clipPath>
</defs>
</svg>
