<svg width="24" height="24" viewBox="0 0 24 24" fill="none" xmlns="http://www.w3.org/2000/svg">
<g clip-path="url(#clip0_22_392)">
<path d="M24 16V21C24 21.7956 23.6839 22.5587 23.1213 23.1213C22.5587 23.6839 21.7956 24 21 24H16C14.5971 23.9985 13.2192 23.6282 12.0047 22.9261C10.7901 22.224 9.78145 21.2149 9.08 20C9.83387 19.9946 10.5852 19.9115 11.322 19.752C11.8832 20.4536 12.595 21.02 13.4048 21.4091C14.2146 21.7983 15.1016 22.0002 16 22H21C21.2652 22 21.5196 21.8946 21.7071 21.7071C21.8946 21.5195 22 21.2652 22 21V16C21.9998 15.1012 21.7972 14.214 21.4074 13.4042C21.0175 12.5944 20.4504 11.8827 19.748 11.322C19.9088 10.5853 19.9933 9.83396 20 9.07995C21.215 9.7814 22.2241 10.79 22.9262 12.0046C23.6282 13.2192 23.9986 14.597 24 16ZM17.977 9.65095C18.0705 8.36259 17.8856 7.06919 17.4348 5.85865C16.9841 4.6481 16.278 3.54877 15.3646 2.63537C14.4512 1.72196 13.3518 1.01588 12.1413 0.565107C10.9308 0.114332 9.63736 -0.0705757 8.349 0.02295C6.06592 0.283682 3.95693 1.37013 2.41918 3.07769C0.881427 4.78526 0.0210272 6.99612 0 9.29395L0 14.334C0 16.866 1.507 18 3 18H8.7C10.9988 17.9802 13.211 17.1203 14.9198 15.5825C16.6286 14.0447 17.7159 11.935 17.977 9.65095ZM13.95 4.05095C14.6599 4.76245 15.2088 5.61815 15.5593 6.56014C15.9099 7.50213 16.054 8.50843 15.982 9.51095C15.7686 11.2946 14.9105 12.9388 13.5693 14.1339C12.2282 15.329 10.4964 15.9927 8.7 16H3C2.072 16 2 14.725 2 14.334V9.29395C2.00834 7.49833 2.67265 5.76766 3.86792 4.42763C5.06319 3.0876 6.70699 2.23062 8.49 2.01795C8.656 2.00595 8.822 1.99995 8.988 1.99995C9.90927 1.99909 10.8217 2.17979 11.6731 2.53171C12.5245 2.88363 13.2982 3.39988 13.95 4.05095Z" fill="#374957"/>
</g>
<defs>
<clipPath id="clip0_22_392">
<rect width="24" height="24" fill="white"/>
</clipPath>
</defs>
</svg>
