<svg width="24" height="24" viewBox="0 0 24 24" fill="none" xmlns="http://www.w3.org/2000/svg">
<g clip-path="url(#clip0_18_244)">
<path d="M19.3331 14.6675C18.577 14.6682 17.8324 14.8527 17.1636 15.2054C16.4948 15.558 15.9218 16.0681 15.4941 16.6915L8.98512 13.7525C9.44743 12.6362 9.44922 11.3822 8.99012 10.2645L15.4901 7.31055C16.124 8.2273 17.0654 8.88651 18.1437 9.16859C19.222 9.45068 20.3656 9.33695 21.3672 8.84805C22.3688 8.35914 23.162 7.52744 23.603 6.50381C24.0439 5.48018 24.1033 4.33242 23.7705 3.26872C23.4376 2.20502 22.7346 1.29584 21.7888 0.7061C20.8431 0.116359 19.7173 -0.114882 18.6157 0.0543211C17.514 0.223525 16.5095 0.781966 15.7844 1.62835C15.0592 2.47473 14.6614 3.55299 14.6631 4.66755C14.6674 4.93135 14.6941 5.1943 14.7431 5.45355L7.83312 8.59355C7.16946 7.97176 6.33862 7.55738 5.44269 7.40131C4.54676 7.24523 3.62474 7.35426 2.78992 7.715C1.95511 8.07574 1.24384 8.67248 0.743512 9.43191C0.243183 10.1913 -0.0244188 11.0804 -0.026417 11.9898C-0.0284151 12.8992 0.235277 13.7894 0.732264 14.551C1.22925 15.3127 1.93789 15.9125 2.77111 16.2769C3.60434 16.6413 4.52586 16.7544 5.42247 16.6023C6.31908 16.4501 7.15173 16.0394 7.81812 15.4205L14.7461 18.5485C14.698 18.8076 14.6716 19.0701 14.6671 19.3335C14.6669 20.2567 14.9405 21.1591 15.4532 21.9268C15.966 22.6944 16.6948 23.2927 17.5477 23.6461C18.4005 23.9995 19.339 24.092 20.2444 23.9119C21.1498 23.7319 21.9814 23.2874 22.6342 22.6346C23.2869 21.9819 23.7314 21.1502 23.9115 20.2448C24.0915 19.3394 23.999 18.4009 23.6457 17.5481C23.2923 16.6953 22.694 15.9664 21.9263 15.4537C21.1587 14.9409 20.2562 14.6673 19.3331 14.6675ZM19.3331 2.00055C19.8606 2.00035 20.3764 2.1566 20.8151 2.44953C21.2538 2.74246 21.5958 3.15892 21.7978 3.64624C21.9998 4.13355 22.0528 4.66983 21.95 5.18724C21.8472 5.70465 21.5933 6.17996 21.2203 6.55305C20.8474 6.92613 20.3722 7.18024 19.8548 7.28323C19.3374 7.38621 18.8011 7.33346 18.3137 7.13163C17.8263 6.9298 17.4098 6.58796 17.1167 6.14936C16.8236 5.71075 16.6671 5.19507 16.6671 4.66755C16.6676 3.96055 16.9487 3.28265 17.4485 2.78263C17.9483 2.28261 18.6261 2.00134 19.3331 2.00055ZM4.66712 14.6675C4.13959 14.6677 3.62386 14.5115 3.18514 14.2186C2.74642 13.9256 2.40443 13.5092 2.20242 13.0219C2.0004 12.5345 1.94745 11.9983 2.05024 11.4809C2.15303 10.9634 2.40696 10.4881 2.77991 10.115C3.15286 9.74196 3.62807 9.48785 4.14544 9.38486C4.66282 9.28188 5.19911 9.33463 5.6865 9.53646C6.17389 9.73829 6.59048 10.0801 6.88358 10.5187C7.17667 10.9573 7.33312 11.473 7.33312 12.0005C7.33232 12.7075 7.05122 13.3852 6.55145 13.8852C6.05167 14.3851 5.37403 14.6665 4.66712 14.6675ZM19.3331 22.0005C18.8056 22.0005 18.29 21.8441 17.8514 21.5511C17.4128 21.258 17.071 20.8415 16.8691 20.3542C16.6673 19.8668 16.6145 19.3306 16.7174 18.8132C16.8203 18.2959 17.0743 17.8207 17.4473 17.4477C17.8202 17.0747 18.2955 16.8207 18.8128 16.7178C19.3302 16.6149 19.8664 16.6677 20.3537 16.8696C20.8411 17.0714 21.2576 17.4133 21.5506 17.8518C21.8437 18.2904 22.0001 18.8061 22.0001 19.3335C21.9996 20.0407 21.7184 20.7188 21.2184 21.2188C20.7183 21.7189 20.0403 22 19.3331 22.0005Z" fill="#16B8A8"/>
</g>
<defs>
<clipPath id="clip0_18_244">
<rect width="24" height="24" fill="white"/>
</clipPath>
</defs>
</svg>
