<svg width="14" height="14" viewBox="0 0 14 14" fill="none" xmlns="http://www.w3.org/2000/svg">
<g clip-path="url(#clip0_32_988)">
<path d="M4.0833 14C4.00653 14.0004 3.93042 13.9857 3.85935 13.9567C3.78828 13.9277 3.72364 13.8849 3.66913 13.8308C3.61446 13.7766 3.57106 13.7121 3.54144 13.641C3.51183 13.5699 3.49658 13.4937 3.49658 13.4167C3.49658 13.3396 3.51183 13.2634 3.54144 13.1923C3.57106 13.1212 3.61446 13.0567 3.66913 13.0025L8.43496 8.23666C8.76268 7.90854 8.94676 7.46375 8.94676 7C8.94676 6.53625 8.76268 6.09146 8.43496 5.76333L3.66913 0.997505C3.55929 0.887661 3.49758 0.738681 3.49758 0.583339C3.49758 0.427997 3.55929 0.279017 3.66913 0.169173C3.77897 0.0593292 3.92796 -0.00238037 4.0833 -0.00238037C4.23864 -0.00238037 4.38762 0.0593292 4.49746 0.169173L9.2633 4.935C9.53492 5.20593 9.75042 5.52779 9.89745 5.88214C10.0445 6.23648 10.1202 6.61636 10.1202 7C10.1202 7.38364 10.0445 7.76351 9.89745 8.11786C9.75042 8.47221 9.53492 8.79406 9.2633 9.06499L4.49746 13.8308C4.44296 13.8849 4.37831 13.9277 4.30724 13.9567C4.23617 13.9857 4.16007 14.0004 4.0833 14Z" fill="#4B5563"/>
</g>
<defs>
<clipPath id="clip0_32_988">
<rect width="14" height="14" fill="white"/>
</clipPath>
</defs>
</svg>
